<svg width="119" height="119" viewBox="0 0 119 119" fill="none" xmlns="http://www.w3.org/2000/svg">
<g id="cookies-svgrepo-com 1" clip-path="url(#clip0_2_3)">
<g id="cookie">
<path id="Vector" d="M111.477 57.7243L105.82 58.8557C103.937 59.2322 102.045 58.253 101.265 56.4985L95.2051 42.8632C94.6922 41.7088 93.676 40.8553 92.4507 40.5488L89.2937 39.7597C87.4669 39.303 86.1855 37.6619 86.1855 35.7788V13.8995C86.1855 12.8771 85.8037 11.8914 85.115 11.1356L77.493 2.77162C70.6209 0.595454 63.2132 -0.375372 55.5117 0.131773C25.9116 2.08179 1.93283 26.1607 0.126675 55.7696C-1.98069 90.321 25.4167 119 59.5128 119C92.034 119 118.444 92.9048 118.987 60.5131L114.117 58.078C113.301 57.6697 112.372 57.5453 111.477 57.7243Z" fill="#FFE6A1"/>
<g id="Group">
<path id="Vector_2" d="M77.9782 100.534C77.6171 100.534 77.2612 100.514 76.9017 100.507C74.6472 103.036 71.3742 104.638 67.7196 104.638C62.3367 104.638 57.7729 101.177 56.1001 96.364C48.7372 93.4501 42.096 89.115 36.5146 83.6884C35.6703 83.9429 34.7933 84.1204 33.866 84.1204C28.7669 84.1204 24.6332 79.9868 24.6332 74.8877C24.6332 73.1069 25.1613 71.4588 26.0347 70.0485C25.9722 69.9367 25.9055 69.8281 25.8435 69.7159C19.4391 69.2817 14.3748 63.9627 14.3748 57.4482C14.3748 53.6088 16.1333 50.1817 18.8878 47.924C18.6268 45.6623 18.4782 43.3664 18.4782 41.0343C18.4782 29.3321 21.8702 18.4285 27.7047 9.22644C11.0665 19.7756 0.0127869 38.3412 0.0127869 59.5C0.0127869 92.361 26.6518 119 59.5128 119C80.6715 119 99.2369 107.946 109.786 91.3081C100.584 97.1426 89.6807 100.534 77.9782 100.534Z" fill="#FFD796"/>
<path id="Vector_3" d="M46.1767 49.2414C49.0095 49.2414 51.306 46.9449 51.306 44.112C51.306 41.2792 49.0095 38.9827 46.1767 38.9827C43.3438 38.9827 41.0473 41.2792 41.0473 44.112C41.0473 46.9449 43.3438 49.2414 46.1767 49.2414Z" fill="#FFD796"/>
<path id="Vector_4" d="M100.547 83.0948C103.38 83.0948 105.677 80.7983 105.677 77.9654C105.677 75.1326 103.38 72.8361 100.547 72.8361C97.7145 72.8361 95.418 75.1326 95.418 77.9654C95.418 80.7983 97.7145 83.0948 100.547 83.0948Z" fill="#FFD796"/>
<path id="Vector_5" d="M53.8705 83.0948C55.8535 83.0948 57.461 81.4873 57.461 79.5043C57.461 77.5214 55.8535 75.9139 53.8705 75.9139C51.8876 75.9139 50.2801 77.5214 50.2801 79.5043C50.2801 81.4873 51.8876 83.0948 53.8705 83.0948Z" fill="#FFD796"/>
<path id="Vector_6" d="M81.5689 50.267C83.5519 50.267 85.1594 48.6595 85.1594 46.6766C85.1594 44.6936 83.5519 43.0861 81.5689 43.0861C79.586 43.0861 77.9785 44.6936 77.9785 46.6766C77.9785 48.6595 79.586 50.267 81.5689 50.267Z" fill="#FFD796"/>
<path id="Vector_7" d="M67.2069 18.4655C69.1898 18.4655 70.7973 16.858 70.7973 14.875C70.7973 12.892 69.1898 11.2845 67.2069 11.2845C65.2239 11.2845 63.6164 12.892 63.6164 14.875C63.6164 16.858 65.2239 18.4655 67.2069 18.4655Z" fill="#FFD796"/>
</g>
<g id="Group_2">
<path id="Vector_8" d="M56.5271 52.8495L54.1552 56.8027C52.7375 59.1655 54.0056 62.2265 56.6786 62.8947L63.7387 64.6598C65.9374 65.2094 68.1654 63.8728 68.7148 61.6741L69.5225 58.4434C69.6859 57.7898 69.6859 57.1065 69.5225 56.4529L68.6686 53.037C68.1375 50.912 66.0308 49.5788 63.883 50.0084L59.2411 50.9366C58.1073 51.1637 57.1221 51.8582 56.5271 52.8495Z" fill="#B97850"/>
<path id="Vector_9" d="M68.3697 78.2502L65.896 82.3729C64.6663 84.4226 65.4416 87.0855 67.5795 88.1544L75.4544 92.0918C77.8023 93.266 80.6337 91.9635 81.2705 89.4169L82.0816 86.1723L83.0297 82.3794C83.6198 80.0189 82.038 77.6661 79.6289 77.3219L72.4682 76.2988C70.8343 76.0654 69.219 76.8345 68.3697 78.2502Z" fill="#B97850"/>
<path id="Vector_10" d="M25.1976 53.7727L22.1786 58.8043C21.2099 60.419 21.4644 62.4857 22.7957 63.8172L27.5469 68.5686C29.2763 70.2981 32.1249 70.1402 33.6528 68.2304L37.726 63.1388C38.526 62.1389 38.8133 60.8227 38.5025 59.5802L37.5736 55.8642C37.1889 54.3256 35.9524 53.1467 34.3975 52.8355L29.5208 51.8603C27.8204 51.52 26.0898 52.2856 25.1976 53.7727Z" fill="#B97850"/>
<path id="Vector_11" d="M41.9036 20.4575L39.5756 24.3376C38.225 26.5886 39.3063 29.5115 41.7967 30.3417L46.8483 32.0256C48.3228 32.517 49.9484 32.1332 51.0475 31.0344L53.7666 28.3152C54.7858 27.2961 55.1955 25.8167 54.846 24.4185L54.1348 21.5739C53.6781 19.7468 52.0367 18.4652 50.1536 18.4652H45.422C43.981 18.4654 42.6452 19.2217 41.9036 20.4575Z" fill="#B97850"/>
<path id="Vector_12" d="M91.4617 52.1717L89.0866 54.5468C87.4843 56.1492 87.4843 58.7474 89.0866 60.35L90.249 61.5123C91.498 62.7613 93.4057 63.0709 94.9857 62.2809L101.707 58.9206C103.427 58.0604 104.319 56.121 103.853 54.2552L103.548 53.0375C103.017 50.9125 100.91 49.5793 98.7626 50.0088L93.5589 51.0496C92.7642 51.2081 92.0347 51.5988 91.4617 52.1717Z" fill="#B97850"/>
<path id="Vector_13" d="M76.2039 22.8833L73.4788 26.517C72.4777 27.8516 72.3845 29.6598 73.2429 31.0904L75.7644 35.2928C76.9698 37.3018 79.6098 37.8954 81.5592 36.596L86.6794 33.1824C88.6397 31.8757 89.0994 29.1905 87.686 27.3061L84.9026 23.5948C84.4017 22.927 83.7093 22.4278 82.9174 22.164L80.7843 21.4528C79.1085 20.8938 77.2635 21.4702 76.2039 22.8833Z" fill="#B97850"/>
<path id="Vector_14" d="M41.0896 87.7125L38.4103 91.0617C36.6901 93.2119 37.534 96.4123 40.0907 97.4352L43.6897 98.8748C44.6682 99.2662 45.7595 99.2662 46.7377 98.8748L50.7767 97.259C53.1967 96.2912 54.1129 93.3416 52.6673 91.1728L51.9735 90.1323C51.5772 89.538 51.0331 89.0578 50.3944 88.7382L46.1295 86.6057C44.3982 85.7404 42.2982 86.2018 41.0896 87.7125Z" fill="#B97850"/>
</g>
<g id="Group_3">
<path id="Vector_15" d="M32.6385 68.0813L27.8874 63.3301C26.5561 61.9988 26.3013 59.9319 27.2703 58.3175L30.2892 53.2858C30.5467 52.8567 30.887 52.5083 31.2633 52.2089L29.5211 51.8608C27.8207 51.5207 26.0898 52.2863 25.1976 53.7731L22.1786 58.8048C21.2099 60.4195 21.4644 62.4862 22.7957 63.8177L27.5469 68.5689C29.1499 70.1719 31.7014 70.1333 33.2842 68.6012C33.0574 68.4508 32.8389 68.2818 32.6385 68.0813Z" fill="#A5694B"/>
<path id="Vector_16" d="M50.958 30.5649L45.9064 28.8812C43.4162 28.051 42.3345 25.1281 43.6853 22.8771L46.0133 18.997C46.1316 18.7994 46.288 18.637 46.4346 18.4655H45.4217C43.9805 18.4655 42.6448 19.2218 41.9031 20.4578L39.5752 24.3376C38.2243 26.5886 39.3056 29.5115 41.7962 30.3417L46.8479 32.0256C48.3224 32.517 49.9479 32.1333 51.0471 31.0344L51.4294 30.652C51.2723 30.6195 51.1128 30.6165 50.958 30.5649Z" fill="#A5694B"/>
<path id="Vector_17" d="M67.632 63.48L60.5719 61.715C57.8986 61.0465 56.6305 57.9858 58.0485 55.623L60.4204 51.6697C60.7028 51.199 61.0779 50.8018 61.5105 50.4832L59.2411 50.9371C58.1076 51.1637 57.1219 51.8584 56.5271 52.8499L54.1552 56.8032C52.7375 59.166 54.0056 62.227 56.6786 62.8952L63.7387 64.6602C65.226 65.0321 66.7135 64.5273 67.6987 63.49C67.6764 63.4844 67.6543 63.4856 67.632 63.48Z" fill="#A5694B"/>
<path id="Vector_18" d="M79.5973 34.9379L77.0757 30.7355C76.2174 29.3049 76.3106 27.4971 77.3117 26.1621L80.0368 22.5286C80.3352 22.1305 80.7057 21.8186 81.1073 21.5599L80.784 21.4523C79.1083 20.8938 77.2633 21.4702 76.2035 22.8831L73.4786 26.5165C72.4775 27.8513 72.3843 29.6593 73.2426 31.0899L75.7642 35.2923C76.9656 37.2946 79.5912 37.8885 81.5385 36.6062C80.7582 36.2815 80.0675 35.7214 79.5973 34.9379Z" fill="#A5694B"/>
<path id="Vector_19" d="M93.5422 61.239C91.9396 59.6364 91.9396 57.0384 93.5422 55.4359L95.9173 53.0608C96.49 52.4881 97.2195 52.0974 98.0142 51.9386L102.394 51.0626C101.457 50.172 100.119 49.7371 98.7623 50.0086L93.5587 51.0494C92.7642 51.2084 92.0347 51.5988 91.4617 52.1715L89.0866 54.5466C87.4843 56.1492 87.4843 58.7472 89.0866 60.3497L90.249 61.5121C91.4206 62.6837 93.1638 62.9907 94.6801 62.3774L93.5422 61.239Z" fill="#A5694B"/>
<path id="Vector_20" d="M72.6628 87.8101C70.5249 86.7412 69.7494 84.0784 70.9793 82.0286L73.453 77.9062C73.7774 77.3658 74.236 76.956 74.7418 76.6239L72.4687 76.2992C70.8343 76.0656 69.2192 76.8345 68.3699 78.2502L65.8963 82.3729C64.6665 84.4226 65.4419 87.0855 67.5797 88.1544L75.4546 92.0918C77.0242 92.8767 78.7954 92.5378 79.9968 91.4775L72.6628 87.8101Z" fill="#A5694B"/>
<path id="Vector_21" d="M47.7931 98.1889L44.1941 96.7493C41.6377 95.7269 40.7938 92.526 42.5137 90.3758L45.193 87.0266C45.3632 86.814 45.5542 86.628 45.756 86.4579C44.1044 85.8255 42.2134 86.3075 41.0896 87.7125L38.4103 91.0617C36.6901 93.2119 37.534 96.4123 40.0907 97.4352L43.6897 98.8748C44.6682 99.2662 45.7594 99.2662 46.7377 98.8748L48.1734 98.3005C48.0462 98.2635 47.9168 98.2384 47.7931 98.1889Z" fill="#A5694B"/>
</g>
<path id="Vector_22" d="M16.4241 84.1186C16.1166 84.1186 15.8028 84.0486 15.5086 83.9022C14.4948 83.3953 14.0838 82.1632 14.591 81.1494L16.6428 77.046C17.15 76.0322 18.379 75.6254 19.3956 76.1284C20.4094 76.6355 20.8204 77.8674 20.3132 78.8812L18.2614 82.9846C17.9018 83.7037 17.1776 84.1186 16.4241 84.1186Z" fill="#C98850"/>
<path id="Vector_23" d="M53.3575 110.793H51.3057C50.1727 110.793 49.2539 109.875 49.2539 108.741C49.2539 107.607 50.1727 106.689 51.3057 106.689H53.3575C54.4906 106.689 55.4094 107.607 55.4094 108.741C55.4094 109.875 54.4906 110.793 53.3575 110.793Z" fill="#925F4A"/>
<path id="Vector_24" d="M45.1487 71.8102C44.8412 71.8102 44.5274 71.7403 44.2331 71.5938C43.2193 71.0867 42.8084 69.8546 43.3155 68.841L45.3674 64.7376C45.8733 63.7259 47.1026 63.3171 48.1202 63.82C49.134 64.3272 49.5449 65.559 49.0378 66.5728L46.986 70.6762C46.6264 71.3956 45.9019 71.8102 45.1487 71.8102Z" fill="#C98850"/>
<g id="Group_4">
<path id="Vector_25" d="M32.8384 39.9827C32.5309 39.9827 32.2172 39.9106 31.9229 39.7598L27.8195 37.6454C26.8057 37.1228 26.3948 35.8535 26.9019 34.8088C27.4079 33.7662 28.6381 33.3428 29.6547 33.8632L33.7581 35.9773C34.7719 36.4999 35.1829 37.7693 34.6757 38.814C34.3162 39.5552 33.5917 39.9827 32.8384 39.9827Z" fill="#925F4A"/>
<path id="Vector_26" d="M57.4612 10.3834H53.3578C52.2247 10.3834 51.306 9.43785 51.306 8.26908C51.306 7.10031 52.2247 6.15475 53.3578 6.15475H57.4612C58.5943 6.15475 59.513 7.10031 59.513 8.26908C59.513 9.43785 58.5943 10.3834 57.4612 10.3834Z" fill="#925F4A"/>
</g>
<path id="Vector_27" d="M65.6701 42.0343C64.9166 42.0343 64.1924 41.5691 63.8328 40.7621L61.781 36.1587C61.2738 35.0213 61.6848 33.6388 62.6986 33.0704C63.7145 32.5038 64.9456 32.9648 65.4514 34.0998L67.5032 38.7033C68.0104 39.8407 67.5994 41.2231 66.5856 41.7915C66.2909 41.9558 65.9776 42.0343 65.6701 42.0343Z" fill="#C98850"/>
<g id="Group_5">
<path id="Vector_28" d="M9.36335 51.3074C9.08746 51.1668 8.83714 50.9584 8.63749 50.6881C7.95185 49.7547 8.12826 48.4241 9.03122 47.7154L12.6854 44.847C13.5874 44.1378 14.8734 44.3219 15.5604 45.2541C16.2461 46.1875 16.0697 47.5181 15.1667 48.2268L11.5128 51.0949C10.872 51.5977 10.039 51.6515 9.36335 51.3074Z" fill="#925F4A"/>
<path id="Vector_29" d="M86.1853 74.8621C85.6602 74.8621 85.1352 74.6549 84.7347 74.2406L80.6313 69.9979C79.83 69.1693 79.83 67.8266 80.6313 66.998C81.4327 66.1694 82.7313 66.1694 83.5327 66.998L87.6361 71.2408C88.4374 72.0694 88.4374 73.412 87.6361 74.2406C87.2351 74.6549 86.7101 74.8621 86.1853 74.8621Z" fill="#925F4A"/>
</g>
<path id="Vector_30" d="M90.2887 100.379C89.7637 100.379 89.2386 99.9837 88.8381 99.1924C88.0368 97.6098 88.0368 95.0455 88.8381 93.4629L90.89 89.411C91.6914 87.8284 92.9899 87.8284 93.7913 89.411C94.5927 90.9936 94.5927 93.5579 93.7913 95.1405L91.7395 99.1924C91.3385 99.9837 90.8137 100.379 90.2887 100.379Z" fill="#C98850"/>
</g>
<g id="Crumbs">
<g id="Group_6">
<path id="Vector_31" d="M94.3921 8.20682V13.3833C94.3921 14.835 95.858 15.8275 97.2058 15.2882L103.361 12.8262C104.14 12.5145 104.651 11.7601 104.651 10.9213V8.20682C104.651 7.07376 103.732 6.155 102.599 6.155H96.4437C95.3109 6.155 94.3921 7.07376 94.3921 8.20682Z" fill="#FFE6A1"/>
<path id="Vector_32" d="M98.7786 24.382L97.4694 33.5473C97.1614 35.7033 98.5915 37.7244 100.727 38.1514L104.484 38.9028C106.115 39.2291 107.781 38.5388 108.703 37.1552L110.117 35.0355C110.848 33.9373 111.008 32.5542 110.544 31.3186L106.264 19.9042C105.731 18.4845 103.91 18.0901 102.838 19.1623L99.9395 22.0608C99.3115 22.6886 98.9043 23.5032 98.7786 24.382Z" fill="#FFE6A1"/>
</g>
<g id="Group_7">
<path id="Vector_33" d="M109.065 35.2582L105.307 34.5067C103.172 34.0795 101.742 32.0584 102.05 29.9027L103.359 20.7376C103.476 19.9202 103.857 19.1736 104.412 18.5661C103.855 18.538 103.283 18.7172 102.838 19.1615L99.9393 22.0603C99.3116 22.6881 98.9041 23.5027 98.7788 24.3815L97.4696 33.5466C97.1616 35.7028 98.5917 37.7237 100.727 38.1506L104.485 38.9021C106.115 39.2279 107.781 38.5381 108.704 37.1545L109.94 35.3002C109.649 35.306 109.358 35.317 109.065 35.2582Z" fill="#FFD796"/>
<path id="Vector_34" d="M101.309 11.1846C99.9614 11.7236 98.4955 10.7312 98.4955 9.27968V6.155H96.4437C95.3106 6.155 94.3919 7.07376 94.3919 8.20682V13.3833C94.3919 14.835 95.8578 15.8275 97.2056 15.2882L103.361 12.8262C104.14 12.5145 104.651 11.7603 104.651 10.9213V9.84818L101.309 11.1846Z" fill="#FFD796"/>
<path id="Vector_35" d="M109.777 44.7466L108.564 47.1721C108.276 47.7497 108.276 48.4295 108.564 49.0071L109.118 50.1143C109.67 51.2181 111.064 51.5886 112.091 50.9041L115.398 48.6991C115.969 48.3184 116.312 47.6779 116.312 46.992V44.7814C116.312 43.3811 114.94 42.3921 113.612 42.8351L110.963 43.7179C110.447 43.8896 110.02 44.2596 109.777 44.7466Z" fill="#FFD796"/>
</g>
</g>
</g>
<defs>
<clipPath id="clip0_2_3">
<rect width="119" height="119" fill="white"/>
</clipPath>
</defs>
</svg>
